<svg width="24" height="24" viewBox="0 0 24 24" fill="none" xmlns="http://www.w3.org/2000/svg">
<rect x="0.727273" y="0.727273" width="22.5455" height="22.5455" rx="4.36364" fill="#C16102" stroke="#C16102" stroke-width="1.45455"/>
<path fill-rule="evenodd" clip-rule="evenodd" d="M19.309 6.86524C19.5135 7.06981 19.6284 7.34724 19.6284 7.63651C19.6284 7.92578 19.5135 8.20321 19.309 8.40778L11.1322 16.5845C11.0242 16.6926 10.8959 16.7783 10.7547 16.8368C10.6135 16.8953 10.4622 16.9254 10.3093 16.9254C10.1565 16.9254 10.0051 16.8953 9.86395 16.8368C9.72275 16.7783 9.59446 16.6926 9.48641 16.5845L5.42386 12.5227C5.31967 12.4221 5.23656 12.3017 5.17939 12.1686C5.12221 12.0355 5.09212 11.8923 5.09086 11.7475C5.0896 11.6026 5.1172 11.459 5.17206 11.3249C5.22691 11.1909 5.30791 11.0691 5.41034 10.9666C5.51277 10.8642 5.63457 10.7832 5.76864 10.7283C5.90271 10.6735 6.04636 10.6459 6.19121 10.6471C6.33606 10.6484 6.47921 10.6785 6.6123 10.7357C6.7454 10.7928 6.86577 10.876 6.96641 10.9801L10.309 14.3227L17.7657 6.86524C17.867 6.76386 17.9873 6.68345 18.1197 6.62858C18.2521 6.57371 18.394 6.54547 18.5373 6.54547C18.6806 6.54547 18.8226 6.57371 18.955 6.62858C19.0874 6.68345 19.2076 6.76386 19.309 6.86524Z" fill="white"/>
</svg>
