<svg width="7" height="14" viewBox="0 0 7 14" fill="none" xmlns="http://www.w3.org/2000/svg">
<path d="M0.188113 12.8196C0.128024 12.8864 0.0810475 12.965 0.0498662 13.0508C0.0186849 13.1367 0.00390911 13.2282 0.00638294 13.32C0.00885677 13.4119 0.028532 13.5023 0.0642843 13.5862C0.100037 13.6701 0.151167 13.7457 0.214755 13.8088C0.278343 13.872 0.353145 13.9213 0.434887 13.954C0.516631 13.9868 0.603714 14.0023 0.691167 13.9997C0.778621 13.9971 0.864731 13.9765 0.944581 13.9389C1.02443 13.9013 1.09646 13.8476 1.15655 13.7809L6.81794 7.48455C6.93486 7.35466 7 7.18268 7 7.00393C7 6.82518 6.93486 6.65321 6.81794 6.52331L1.15655 0.226309C1.09685 0.158056 1.02484 0.102941 0.944699 0.0641661C0.864556 0.0253916 0.777877 0.00373077 0.689696 0.000439644C0.601515 -0.00285053 0.51359 0.0122957 0.431029 0.0449982C0.348468 0.0777006 0.272916 0.127308 0.208763 0.190939C0.144608 0.25457 0.0931311 0.330956 0.0573201 0.41566C0.0215092 0.500364 0.00207901 0.591698 0.000157833 0.684356C-0.00176334 0.777015 0.0138626 0.86915 0.0461287 0.955412C0.0783944 1.04167 0.126657 1.12034 0.188113 1.18684L5.41791 7.00393L0.188113 12.8196Z" fill="#5F5F5F"/>
</svg>
