<svg width="15" height="8" viewBox="0 0 15 8" fill="none" xmlns="http://www.w3.org/2000/svg">
<path d="M1.68038 0.688113C1.61359 0.628024 1.53502 0.581048 1.44916 0.549866C1.3633 0.518685 1.27183 0.503909 1.17998 0.506383C1.08812 0.508857 0.997672 0.528532 0.913802 0.564284C0.829931 0.600037 0.754278 0.651167 0.691162 0.714755C0.628047 0.778343 0.578704 0.853145 0.545953 0.934887C0.513201 1.01663 0.497681 1.10371 0.50028 1.19117C0.502878 1.27862 0.523544 1.36473 0.561097 1.44458C0.59865 1.52443 0.652355 1.59646 0.719146 1.65655L7.01545 7.31794C7.14534 7.43486 7.31732 7.5 7.49607 7.5C7.67482 7.5 7.84679 7.43486 7.97669 7.31794L14.2737 1.65655C14.3419 1.59685 14.3971 1.52484 14.4358 1.4447C14.4746 1.36456 14.4963 1.27788 14.4996 1.1897C14.5029 1.10151 14.4877 1.01359 14.455 0.931029C14.4223 0.848468 14.3727 0.772916 14.3091 0.708763C14.2454 0.644608 14.169 0.593131 14.0843 0.55732C13.9996 0.521509 13.9083 0.502079 13.8156 0.500158C13.723 0.498237 13.6308 0.513863 13.5446 0.546129C13.4583 0.578394 13.3797 0.626657 13.3132 0.688113L7.49607 5.91791L1.68038 0.688113Z" fill="#5F5F5F"/>
</svg>
