<svg width="31" height="37" viewBox="0 0 31 37" fill="none" xmlns="http://www.w3.org/2000/svg">
<path d="M13.1389 3.89663L9.14124 4.46532L9.07044 4.47946C8.96325 4.50738 8.86554 4.56271 8.78728 4.63981C8.70902 4.7169 8.65301 4.81299 8.62497 4.91827C8.59694 5.02355 8.59788 5.13424 8.62771 5.23904C8.65753 5.34384 8.71517 5.439 8.79474 5.5148L11.6908 8.28082L11.0078 12.1879L10.9997 12.2555C10.9931 12.3643 11.0162 12.4728 11.0664 12.57C11.1166 12.6672 11.1923 12.7495 11.2856 12.8086C11.379 12.8676 11.4866 12.9013 11.5976 12.9061C11.7085 12.9109 11.8188 12.8867 11.917 12.8359L15.4923 10.9915L19.0595 12.8359L19.1222 12.8642C19.2256 12.9042 19.338 12.9164 19.4478 12.8997C19.5577 12.883 19.661 12.8379 19.7472 12.7691C19.8335 12.7002 19.8995 12.6101 19.9385 12.508C19.9775 12.4059 19.9882 12.2954 19.9693 12.1879L19.2857 8.28082L22.183 5.51418L22.2319 5.46193C22.3017 5.37755 22.3475 5.27653 22.3646 5.16915C22.3816 5.06177 22.3694 4.95187 22.3291 4.85064C22.2888 4.74942 22.2218 4.66048 22.1351 4.5929C22.0484 4.52533 21.9449 4.48152 21.8353 4.46594L17.8377 3.89663L16.0506 0.343043C15.9989 0.240084 15.9189 0.153385 15.8195 0.0927583C15.7202 0.0321319 15.6056 0 15.4886 0C15.3716 0 15.257 0.0321319 15.1576 0.0927583C15.0583 0.153385 14.9782 0.240084 14.9265 0.343043L13.1389 3.89663Z" fill="#F5EBE0"/>
<path d="M3.40066 13.1831L0.402435 13.6002L0.349332 13.6105C0.268944 13.631 0.195659 13.6716 0.136962 13.7281C0.0782653 13.7847 0.0362591 13.8551 0.0152334 13.9323C-0.00579243 14.0095 -0.00508448 14.0907 0.0172849 14.1676C0.0396542 14.2444 0.0828834 14.3142 0.142558 14.3698L2.31462 16.3982L1.80239 19.2634L1.79628 19.313C1.79136 19.3928 1.80862 19.4723 1.84631 19.5436C1.88399 19.6149 1.94073 19.6752 2.01073 19.7185C2.08073 19.7618 2.16147 19.7865 2.24467 19.79C2.32788 19.7936 2.41057 19.7758 2.48427 19.7386L5.16576 18.386L7.84113 19.7386L7.88812 19.7593C7.96569 19.7887 8.04999 19.7976 8.13238 19.7854C8.21476 19.7731 8.29226 19.7401 8.35693 19.6896C8.4216 19.6391 8.47111 19.573 8.50038 19.4981C8.52965 19.4232 8.53762 19.3422 8.52348 19.2634L8.01078 16.3982L10.1838 14.3693L10.2204 14.331C10.2728 14.2691 10.3071 14.195 10.3199 14.1163C10.3327 14.0376 10.3236 13.957 10.2933 13.8827C10.2631 13.8085 10.2129 13.7433 10.1478 13.6937C10.0828 13.6442 10.0052 13.612 9.92297 13.6006L6.92474 13.1831L5.58447 10.5772C5.54569 10.5017 5.48565 10.4381 5.41115 10.3936C5.33666 10.3492 5.25067 10.3256 5.16294 10.3256C5.0752 10.3256 4.98922 10.3492 4.91472 10.3936C4.84022 10.4381 4.78018 10.5017 4.7414 10.5772L3.40066 13.1831Z" fill="#F5EBE0"/>
<path d="M24.0518 13.1831L21.0536 13.6002L21.0005 13.6105C20.9201 13.631 20.8468 13.6716 20.7881 13.7281C20.7294 13.7847 20.6874 13.8551 20.6664 13.9323C20.6454 14.0095 20.6461 14.0907 20.6684 14.1676C20.6908 14.2444 20.734 14.3142 20.7937 14.3698L22.9658 16.3982L22.4536 19.2634L22.4474 19.313C22.4425 19.3928 22.4598 19.4723 22.4975 19.5436C22.5351 19.6149 22.5919 19.6752 22.6619 19.7185C22.7319 19.7618 22.8126 19.7865 22.8958 19.79C22.979 19.7936 23.0617 19.7758 23.1354 19.7386L25.8169 18.386L28.4923 19.7386L28.5393 19.7593C28.6169 19.7887 28.7012 19.7976 28.7835 19.7854C28.8659 19.7731 28.9434 19.7401 29.0081 19.6896C29.0728 19.6391 29.1223 19.573 29.1515 19.4981C29.1808 19.4232 29.1888 19.3422 29.1746 19.2634L28.6619 16.3982L30.8349 14.3693L30.8716 14.331C30.924 14.2691 30.9583 14.195 30.9711 14.1163C30.9839 14.0376 30.9747 13.957 30.9445 13.8827C30.9143 13.8085 30.864 13.7433 30.799 13.6937C30.7339 13.6442 30.6563 13.612 30.5741 13.6006L27.5759 13.1831L26.2356 10.5772C26.1969 10.5017 26.1368 10.4381 26.0623 10.3936C25.9878 10.3492 25.9018 10.3256 25.8141 10.3256C25.7264 10.3256 25.6404 10.3492 25.5659 10.3936C25.4914 10.4381 25.4313 10.5017 25.3926 10.5772L24.0518 13.1831Z" fill="#F5EBE0"/>
<path d="M14.0716 16.9663L7.4712 23.9106C7.19073 24.2055 6.99969 24.5813 6.92227 24.9905C6.84485 25.3996 6.88451 25.8238 7.03625 26.2092L7.1044 26.3621C7.27248 26.7077 7.52797 26.9978 7.84273 27.2004C8.15749 27.403 8.5193 27.5103 8.88829 27.5103H11.4799V34.8912C11.4799 35.4505 11.6911 35.9869 12.067 36.3824C12.4429 36.7778 12.9527 37 13.4843 37H17.493L17.6434 36.9947C18.1476 36.9548 18.6189 36.7159 18.9627 36.3258C19.3066 35.9357 19.4976 35.4232 19.4974 34.8912L19.4964 27.5103H22.0891C22.4854 27.5103 22.8729 27.3865 23.2024 27.1548C23.5319 26.9231 23.7888 26.5938 23.9404 26.2085C24.0921 25.8232 24.1318 25.3993 24.0545 24.9902C23.9772 24.5812 23.7864 24.2055 23.5061 23.9106L16.9058 16.9663C16.5299 16.5709 16.0202 16.3488 15.4887 16.3488C14.9572 16.3488 14.4475 16.5709 14.0716 16.9663Z" fill="#F5EBE0"/>
</svg>
