<svg width="47" height="47" viewBox="0 0 47 47" fill="none" xmlns="http://www.w3.org/2000/svg">
<g opacity="0.61">
<rect x="0.951599" y="0.95166" width="46.0115" height="46.0115" rx="23.0057" fill="#F5EBE0"/>
<path d="M19.2057 19.2176L19.3069 19.2029L19.3522 19.1113L22.9888 11.7508L22.9888 11.7507C23.0779 11.57 23.2159 11.4178 23.3872 11.3114C23.5584 11.205 23.7561 11.1486 23.9578 11.1486C24.1595 11.1486 24.3571 11.205 24.5284 11.3114C24.6996 11.4178 24.8376 11.57 24.9267 11.7507L24.9268 11.7508L28.5621 19.1112L28.6074 19.2029L28.7086 19.2176L36.8409 20.3968L36.841 20.3968C37.03 20.4241 37.2083 20.501 37.3578 20.6197C37.5074 20.7383 37.6228 20.8943 37.6922 21.072C37.7617 21.2496 37.7828 21.4424 37.7534 21.6308C37.7243 21.8174 37.6466 21.993 37.5283 22.1402L37.4367 22.2399L31.5466 27.9665L31.4732 28.0379L31.4905 28.1389L32.8812 36.2316L32.8812 36.2317C32.9137 36.4203 32.8954 36.6141 32.8281 36.7933C32.7609 36.9725 32.6471 37.1306 32.4984 37.2515C32.3498 37.3723 32.1716 37.4514 31.9823 37.4808C31.7946 37.5099 31.6026 37.489 31.4256 37.4203L31.308 37.3663L24.056 33.5484L23.9655 33.5008L23.875 33.5484L16.6017 37.3687L16.6017 37.3687C16.4323 37.4578 16.2422 37.5003 16.0509 37.4919C15.8596 37.4834 15.674 37.4243 15.5131 37.3207C15.3522 37.2171 15.2218 37.0726 15.1352 36.902C15.0494 36.7331 15.0097 36.5447 15.0199 36.3557L15.0352 36.2266L16.4237 28.1389L16.4411 28.0379L16.3676 27.9665L10.4761 22.2373L10.476 22.2372C10.3388 22.1041 10.2395 21.9372 10.1881 21.7533C10.1367 21.5694 10.135 21.3751 10.1834 21.1904C10.2317 21.0057 10.3282 20.8371 10.4631 20.7018C10.5967 20.5677 10.7633 20.4712 10.946 20.4217L11.0788 20.3947L19.2057 19.2176Z" fill="#C16102" stroke="#F5EBE0" stroke-width="0.388986"/>
<path d="M22.6891 29.0677L21.0009 26.6249L18.8381 23.6219H20.6974L22.3467 26.0337L24.5484 29.0677H22.6891ZM18.7992 29.0677L20.8764 26.1037L22.1911 26.7183L20.5807 29.0677H18.7992ZM22.4712 26.5393L21.1642 25.9481L22.6891 23.6219H24.4706L22.4712 26.5393ZM25.0921 29.0677V23.6219H27.5038C27.8617 23.6219 28.1807 23.7023 28.4608 23.8631C28.746 24.0187 28.969 24.234 29.1298 24.5088C29.2958 24.7837 29.3788 25.1001 29.3788 25.458C29.3788 25.8262 29.2958 26.1555 29.1298 26.446C28.969 26.7312 28.746 26.9569 28.4608 27.1228C28.1807 27.2888 27.8617 27.3718 27.5038 27.3718H26.6325V29.0677H25.0921ZM26.6092 26.0414H27.2393C27.3483 26.0414 27.4442 26.0207 27.5272 25.9792C27.6102 25.9325 27.675 25.8677 27.7217 25.7847C27.7735 25.7017 27.7995 25.6006 27.7995 25.4813C27.7995 25.362 27.7735 25.2635 27.7217 25.1857C27.675 25.1079 27.6102 25.0508 27.5272 25.0145C27.4442 24.973 27.3483 24.9523 27.2393 24.9523H26.6092V26.0414Z" fill="#F5EBE0"/>
</g>
</svg>
