<svg width="48" height="48" viewBox="0 0 48 48" fill="none" xmlns="http://www.w3.org/2000/svg">
<g opacity="0.61">
<rect x="0.955505" y="0.955444" width="46.5056" height="46.5056" rx="23.2528" fill="#F5EBE0"/>
<path d="M22.7806 13.94L19.8313 14.3596L19.7791 14.37C19.7 14.3906 19.6279 14.4315 19.5702 14.4883C19.5124 14.5452 19.4711 14.6161 19.4504 14.6938C19.4298 14.7714 19.4305 14.8531 19.4525 14.9304C19.4745 15.0077 19.517 15.0779 19.5757 15.1339L21.7123 17.1745L21.2084 20.0569L21.2024 20.1068C21.1976 20.1871 21.2145 20.2671 21.2516 20.3388C21.2887 20.4105 21.3445 20.4713 21.4133 20.5148C21.4822 20.5584 21.5616 20.5832 21.6435 20.5868C21.7253 20.5903 21.8067 20.5724 21.8792 20.535L24.5168 19.1743L27.1485 20.535L27.1947 20.5559C27.271 20.5854 27.354 20.5944 27.435 20.5821C27.516 20.5697 27.5923 20.5365 27.6559 20.4857C27.7195 20.4349 27.7682 20.3684 27.797 20.2931C27.8258 20.2177 27.8336 20.1362 27.8197 20.0569L27.3154 17.1745L29.4529 15.1334L29.489 15.0948C29.5405 15.0326 29.5742 14.9581 29.5868 14.8788C29.5994 14.7996 29.5904 14.7185 29.5607 14.6439C29.5309 14.5692 29.4815 14.5036 29.4175 14.4537C29.3535 14.4039 29.2772 14.3715 29.1963 14.3601L26.2471 13.94L24.9287 11.3184C24.8906 11.2424 24.8315 11.1785 24.7582 11.1337C24.6849 11.089 24.6004 11.0653 24.5141 11.0653C24.4278 11.0653 24.3432 11.089 24.2699 11.1337C24.1966 11.1785 24.1376 11.2424 24.0994 11.3184L22.7806 13.94Z" fill="#C16102"/>
<path d="M15.5963 20.7912L13.3843 21.0989L13.3451 21.1066C13.2858 21.1217 13.2318 21.1516 13.1885 21.1933C13.1452 21.235 13.1142 21.287 13.0987 21.344C13.0832 21.4009 13.0837 21.4608 13.1002 21.5175C13.1167 21.5742 13.1486 21.6257 13.1926 21.6667L14.795 23.1632L14.4171 25.277L14.4126 25.3136C14.409 25.3724 14.4217 25.4311 14.4495 25.4837C14.4773 25.5363 14.5192 25.5808 14.5708 25.6128C14.6225 25.6447 14.682 25.6629 14.7434 25.6655C14.8048 25.6681 14.8658 25.655 14.9202 25.6276L16.8985 24.6297L18.8722 25.6276L18.9069 25.6429C18.9641 25.6645 19.0263 25.6711 19.0871 25.6621C19.1479 25.653 19.205 25.6286 19.2528 25.5914C19.3005 25.5541 19.337 25.5054 19.3586 25.4501C19.3802 25.3949 19.3861 25.3351 19.3756 25.277L18.9974 23.1632L20.6005 21.6664L20.6276 21.6381C20.6662 21.5925 20.6915 21.5378 20.701 21.4797C20.7104 21.4216 20.7036 21.3621 20.6813 21.3074C20.659 21.2526 20.622 21.2045 20.574 21.1679C20.526 21.1314 20.4687 21.1077 20.4081 21.0993L18.1962 20.7912L17.2074 18.8687C17.1788 18.813 17.1345 18.7661 17.0795 18.7333C17.0245 18.7005 16.9611 18.6831 16.8964 18.6831C16.8317 18.6831 16.7682 18.7005 16.7133 18.7333C16.6583 18.7661 16.614 18.813 16.5854 18.8687L15.5963 20.7912Z" fill="#C16102"/>
<path d="M30.8317 20.7912L28.6198 21.0989L28.5806 21.1066C28.5213 21.1217 28.4672 21.1516 28.4239 21.1933C28.3806 21.235 28.3496 21.287 28.3341 21.344C28.3186 21.4009 28.3191 21.4608 28.3357 21.5175C28.3522 21.5742 28.384 21.6257 28.4281 21.6667L30.0305 23.1632L29.6526 25.277L29.6481 25.3136C29.6445 25.3724 29.6572 25.4311 29.685 25.4837C29.7128 25.5363 29.7547 25.5808 29.8063 25.6128C29.858 25.6447 29.9175 25.6629 29.9789 25.6655C30.0403 25.6681 30.1013 25.655 30.1557 25.6276L32.1339 24.6297L34.1077 25.6276L34.1424 25.6429C34.1996 25.6645 34.2618 25.6711 34.3226 25.6621C34.3833 25.653 34.4405 25.6286 34.4882 25.5914C34.5359 25.5541 34.5725 25.5054 34.5941 25.4501C34.6156 25.3949 34.6215 25.3351 34.6111 25.277L34.2329 23.1632L35.836 21.6664L35.863 21.6381C35.9017 21.5925 35.927 21.5378 35.9364 21.4797C35.9459 21.4216 35.9391 21.3621 35.9168 21.3074C35.8945 21.2526 35.8575 21.2045 35.8095 21.1679C35.7615 21.1314 35.7042 21.1077 35.6436 21.0993L33.4316 20.7912L32.4428 18.8687C32.4142 18.813 32.3699 18.7661 32.315 18.7333C32.26 18.7005 32.1966 18.6831 32.1319 18.6831C32.0671 18.6831 32.0037 18.7005 31.9487 18.7333C31.8938 18.7661 31.8495 18.813 31.8209 18.8687L30.8317 20.7912Z" fill="#C16102"/>
<path d="M23.4688 23.5822L18.5993 28.7054C18.3924 28.923 18.2515 29.2002 18.1944 29.5021C18.1372 29.8039 18.1665 30.1168 18.2784 30.4012L18.3287 30.514C18.4527 30.769 18.6412 30.983 18.8734 31.1324C19.1056 31.2819 19.3726 31.361 19.6448 31.3611H21.5568V36.8063C21.5568 37.2189 21.7126 37.6147 21.9899 37.9064C22.2672 38.1982 22.6433 38.3621 23.0355 38.3621H25.9929L26.1038 38.3582C26.4759 38.3288 26.8236 38.1525 27.0772 37.8647C27.3309 37.5769 27.4718 37.1988 27.4717 36.8063L27.4709 31.3611H29.3837C29.6761 31.361 29.9619 31.2698 30.205 31.0988C30.4481 30.9279 30.6376 30.6849 30.7495 30.4007C30.8614 30.1164 30.8907 29.8037 30.8337 29.5019C30.7766 29.2002 30.6358 28.923 30.4291 28.7054L25.5597 23.5822C25.2824 23.2906 24.9063 23.1267 24.5142 23.1267C24.1221 23.1267 23.7461 23.2906 23.4688 23.5822Z" fill="#C16102"/>
</g>
</svg>
