<svg width="12" height="16" viewBox="0 0 12 16" fill="none" xmlns="http://www.w3.org/2000/svg">
<path d="M9.7879 15.6436C10.1587 15.6436 10.5144 15.4865 10.7766 15.2068C11.0389 14.9271 11.1862 14.5477 11.1862 14.1521V2.22022C11.1862 1.82465 11.0389 1.44528 10.7766 1.16558C10.5144 0.885868 10.1587 0.728729 9.7879 0.728729H5.59309V5.94894L3.84525 4.83032L2.09741 5.94894V0.728729H1.39827C1.02743 0.728729 0.671771 0.885868 0.409544 1.16558C0.147317 1.44528 0 1.82465 0 2.22022V14.1521C0 14.5477 0.147317 14.9271 0.409544 15.2068C0.671771 15.4865 1.02743 15.6436 1.39827 15.6436H9.7879Z" fill="#BBB1A6"/>
</svg>
