<svg width="15" height="14" viewBox="0 0 15 14" fill="none" xmlns="http://www.w3.org/2000/svg">
<path d="M3.35585 13.6436H0.745745C0.335585 13.6436 0 13.3173 0 12.9186V5.66829C0 5.26952 0.335585 4.94326 0.745745 4.94326H3.35585C3.76601 4.94326 4.1016 5.26952 4.1016 5.66829V12.9186C4.1016 13.3173 3.76601 13.6436 3.35585 13.6436ZM8.7625 0.593079H6.15239C5.74223 0.593079 5.40665 0.919342 5.40665 1.31811V12.9186C5.40665 13.3173 5.74223 13.6436 6.15239 13.6436H8.7625C9.17266 13.6436 9.50824 13.3173 9.50824 12.9186V1.31811C9.50824 0.919342 9.17266 0.593079 8.7625 0.593079ZM14.1691 6.39332H11.559C11.1489 6.39332 10.8133 6.71958 10.8133 7.11834V12.9186C10.8133 13.3173 11.1489 13.6436 11.559 13.6436H14.1691C14.5793 13.6436 14.9149 13.3173 14.9149 12.9186V7.11834C14.9149 6.71958 14.5793 6.39332 14.1691 6.39332Z" fill="#BBB1A6"/>
</svg>
