<svg width="1088" height="73" viewBox="0 0 1088 73" fill="none" xmlns="http://www.w3.org/2000/svg">
<path d="M533.725 19.9255L513.689 22.8335L513.335 22.9058C512.797 23.0486 512.308 23.3315 511.915 23.7257C511.523 24.1199 511.243 24.6113 511.102 25.1496C510.961 25.688 510.966 26.254 511.116 26.7899C511.265 27.3258 511.554 27.8124 511.953 28.2L526.468 42.3441L523.045 62.3231L523.004 62.6689C522.971 63.2251 523.086 63.7801 523.338 64.277C523.59 64.7739 523.969 65.1948 524.437 65.4968C524.905 65.7987 525.444 65.9708 526 65.9954C526.556 66.02 527.109 65.8961 527.601 65.6366L545.52 56.2052L563.398 65.6366L563.712 65.7813C564.23 65.9857 564.794 66.0483 565.344 65.9628C565.895 65.8774 566.413 65.6468 566.845 65.2948C567.277 64.9428 567.608 64.4821 567.803 63.9599C567.999 63.4376 568.052 62.8727 567.958 62.3231L564.532 42.3441L579.053 28.1969L579.298 27.9296C579.647 27.4982 579.877 26.9816 579.962 26.4325C580.048 25.8834 579.987 25.3214 579.785 24.8038C579.583 24.2862 579.247 23.8314 578.812 23.4859C578.378 23.1403 577.859 22.9163 577.31 22.8366L557.274 19.9255L548.318 1.75416C548.059 1.22768 547.658 0.784335 547.16 0.474321C546.662 0.164307 546.087 0 545.501 0C544.915 0 544.34 0.164307 543.842 0.474321C543.345 0.784335 542.943 1.22768 542.684 1.75416L533.725 19.9255Z" fill="#C16102"/>
<path d="M484.479 41.5855L470.832 43.5683L470.59 43.6176C470.224 43.7149 469.891 43.9078 469.624 44.1766C469.356 44.4454 469.165 44.7804 469.069 45.1475C468.974 45.5145 468.977 45.9005 469.079 46.2658C469.181 46.6312 469.377 46.963 469.649 47.2273L479.536 56.871L477.204 70.493L477.176 70.7288C477.154 71.108 477.233 71.4864 477.404 71.8252C477.576 72.164 477.834 72.451 478.153 72.6569C478.471 72.8628 478.839 72.9801 479.217 72.9969C479.596 73.0136 479.973 72.9292 480.308 72.7523L492.514 66.3217L504.691 72.7523L504.905 72.8509C505.258 72.9902 505.642 73.033 506.017 72.9747C506.392 72.9164 506.745 72.7592 507.039 72.5192C507.334 72.2792 507.559 71.9651 507.692 71.609C507.825 71.2529 507.862 70.8678 507.797 70.493L505.464 56.871L515.355 47.2251L515.522 47.0429C515.76 46.7488 515.916 46.3966 515.974 46.0222C516.033 45.6478 515.991 45.2646 515.853 44.9117C515.716 44.5588 515.487 44.2487 515.191 44.0131C514.895 43.7775 514.542 43.6247 514.168 43.5704L500.52 41.5855L494.42 29.196C494.243 28.8371 493.97 28.5348 493.631 28.3234C493.292 28.112 492.9 28 492.501 28C492.101 28 491.71 28.112 491.371 28.3234C491.032 28.5348 490.759 28.8371 490.582 29.196L484.479 41.5855Z" fill="#C16102"/>
<path d="M591.479 41.5855L577.832 43.5683L577.59 43.6176C577.224 43.7149 576.891 43.9078 576.624 44.1766C576.356 44.4454 576.165 44.7804 576.069 45.1475C575.974 45.5145 575.977 45.9005 576.079 46.2658C576.181 46.6312 576.377 46.963 576.649 47.2273L586.536 56.871L584.204 70.493L584.176 70.7288C584.154 71.108 584.233 71.4864 584.404 71.8252C584.576 72.164 584.834 72.451 585.153 72.6569C585.471 72.8628 585.839 72.9801 586.217 72.9969C586.596 73.0136 586.973 72.9292 587.308 72.7523L599.514 66.3217L611.691 72.7523L611.905 72.8509C612.258 72.9902 612.642 73.033 613.017 72.9747C613.392 72.9164 613.745 72.7592 614.039 72.5192C614.334 72.2792 614.559 71.9651 614.692 71.609C614.825 71.2529 614.862 70.8678 614.797 70.493L612.464 56.871L622.355 47.2251L622.522 47.0429C622.76 46.7488 622.916 46.3966 622.974 46.0222C623.033 45.6478 622.991 45.2646 622.853 44.9117C622.716 44.5588 622.487 44.2487 622.191 44.0131C621.895 43.7775 621.542 43.6247 621.168 43.5704L607.52 41.5855L601.42 29.196C601.243 28.8371 600.97 28.5348 600.631 28.3234C600.292 28.112 599.9 28 599.501 28C599.101 28 598.71 28.112 598.371 28.3234C598.032 28.5348 597.759 28.8371 597.582 29.196L591.479 41.5855Z" fill="#C16102"/>
<line y1="50" x2="438" y2="50" stroke="#C16102" stroke-width="2"/>
<line x1="650" y1="50" x2="1088" y2="50" stroke="#C16102" stroke-width="2"/>
</svg>
