<svg width="19" height="18" viewBox="0 0 19 18" fill="none" xmlns="http://www.w3.org/2000/svg">
<path d="M13.2337 11.6083H12.3975L12.1011 11.3234C12.7626 10.5574 13.2461 9.65499 13.517 8.6809C13.7878 7.70682 13.8393 6.6851 13.6678 5.68886C13.1702 2.7555 10.7143 0.413034 7.75031 0.0542773C6.70826 -0.0771269 5.64987 0.0308227 4.65612 0.369866C3.66236 0.708909 2.75959 1.27006 2.01688 2.01038C1.27417 2.75069 0.711201 3.65056 0.371062 4.64111C0.0309224 5.63166 -0.0773763 6.68664 0.0544529 7.72533C0.414369 10.6798 2.76441 13.1278 5.70726 13.6237C6.70672 13.7947 7.73174 13.7434 8.70897 13.4734C9.68621 13.2034 10.5915 12.7215 11.3601 12.0621L11.6459 12.3575V13.1911L16.1448 17.6755C16.5788 18.1082 17.2881 18.1082 17.7221 17.6755C18.1561 17.2429 18.1561 16.536 17.7221 16.1033L13.2337 11.6083ZM6.88228 11.6083C4.24642 11.6083 2.11868 9.48746 2.11868 6.86009C2.11868 4.23273 4.24642 2.11185 6.88228 2.11185C9.51814 2.11185 11.6459 4.23273 11.6459 6.86009C11.6459 9.48746 9.51814 11.6083 6.88228 11.6083Z" fill="#6A6A6A"/>
</svg>
