<svg width="289" height="273" viewBox="0 0 289 273" fill="none" xmlns="http://www.w3.org/2000/svg">
<path d="M114.362 1.37914C108.562 3.57913 102.562 8.77913 100.462 13.5791C98.1616 18.8791 97.5616 28.9791 99.3616 34.1791C100.062 36.2791 101.762 39.3791 103.062 41.0791L105.462 44.2791L102.162 50.8791C100.262 54.5791 97.7616 61.3791 96.5616 65.9791C94.6616 73.4791 94.4616 75.9791 95.0616 89.7791C95.5616 104.079 95.4616 105.479 93.7616 107.279C92.7616 108.479 89.1616 114.579 85.8616 120.879C82.6616 127.179 78.2616 135.479 76.1616 139.179L72.3616 146.079L76.7616 143.779C86.1616 139.079 104.262 140.979 125.562 148.879C145.362 156.379 152.462 161.679 164.962 177.879C168.962 183.079 174.162 188.779 176.462 190.579L180.662 193.779L176.462 194.879C162.562 198.579 151.962 211.679 148.062 229.979C146.862 235.379 146.562 240.679 146.962 249.679L147.462 261.979L140.262 261.879C136.362 261.779 130.262 262.079 126.662 262.379C119.462 263.179 101.962 260.479 90.3616 256.879C75.3616 252.179 62.6616 244.979 54.8616 236.479C49.3616 230.479 47.6616 226.279 46.9616 217.379C46.1616 207.079 49.1616 196.579 58.1616 177.879C67.9616 157.479 71.4616 147.579 66.4616 154.579C58.5616 165.479 46.5616 192.579 43.1616 207.279C41.4616 214.579 41.2616 225.279 42.7616 229.979C46.4616 241.479 55.0616 253.579 62.1616 257.479C67.0616 260.079 66.5616 261.079 60.4616 260.779C50.1616 260.179 6.06161 263.379 1.66161 265.079C-3.83839 267.179 4.06161 268.679 29.1616 270.379C54.3616 271.979 75.6616 272.379 143.662 272.379C224.962 272.379 251.662 271.579 275.462 268.879C286.562 267.579 288.862 267.079 288.162 265.879C286.962 263.979 268.762 262.079 243.162 261.279C233.862 260.979 225.762 260.279 225.262 259.779C224.662 259.279 225.862 257.479 228.262 255.179C235.962 247.879 239.662 239.079 239.662 227.879C239.662 219.179 238.362 213.779 235.162 209.079C231.962 204.379 223.762 198.479 218.262 196.879C215.762 196.179 213.662 195.279 213.662 194.779C213.662 194.379 214.662 192.379 215.762 190.379C217.362 187.679 217.762 185.679 217.462 182.079C216.962 176.479 212.662 167.079 208.262 161.579C205.762 158.379 205.462 157.579 206.662 156.879C207.462 156.279 208.762 155.879 209.462 155.879C210.262 155.879 213.962 152.879 217.762 149.179C224.962 142.279 225.562 140.779 223.562 134.979C221.962 130.579 223.662 125.179 229.162 116.879C238.962 101.979 241.662 94.2791 242.362 79.8791C242.862 70.2791 242.662 68.7791 240.162 61.8791C237.962 55.6791 237.462 52.8791 237.562 45.8791C237.862 34.3791 236.262 30.3791 230.062 25.8791C225.562 22.5791 224.662 22.3791 216.762 22.1791C210.162 21.9791 207.962 21.5791 206.262 20.0791C205.062 18.9791 201.962 16.9791 199.162 15.5791C184.562 7.97913 170.562 6.67913 147.562 10.4791C144.262 11.0791 143.562 10.7791 141.062 7.87913C134.862 0.879135 123.362 -1.92086 114.362 1.37914ZM182.762 15.3791C214.962 21.0791 236.762 44.6791 238.462 75.7791C238.862 83.8791 237.462 97.5791 235.962 100.179C235.662 100.579 234.862 100.479 234.162 99.8791C230.862 97.1791 221.362 116.379 219.462 129.779C218.362 137.079 218.162 137.479 215.962 137.079C213.262 136.579 212.762 138.879 215.162 140.879C219.162 144.179 214.862 148.279 204.462 150.979L199.762 152.279L192.962 147.579C189.262 145.079 178.962 136.379 170.162 128.279C150.762 110.479 143.662 104.979 133.062 99.6791C124.362 95.3791 117.662 94.0791 112.962 95.5791C108.662 96.9791 106.962 96.1791 105.162 91.5791C101.262 81.9791 102.562 63.7791 107.962 53.1791C110.562 47.8791 109.562 48.1791 121.762 49.4791C136.262 51.0791 148.962 37.3791 147.462 21.6791C146.862 16.2791 146.662 16.3791 156.962 14.8791C165.562 13.6791 173.862 13.7791 182.762 15.3791Z" fill="#C16102"/>
<path d="M200.662 90.6791C198.762 91.6791 194.562 94.1791 191.262 96.1791C188.062 98.1791 183.062 100.579 180.262 101.479C165.562 106.279 162.162 112.479 170.262 119.979C176.062 125.379 187.062 128.879 198.362 128.879H204.562L206.162 123.579C208.462 116.179 209.262 98.4791 207.462 93.4791C206.662 91.2791 205.562 89.3791 205.062 89.1791C204.562 88.9791 202.562 89.6791 200.662 90.6791Z" fill="#C16102"/>
<path d="M204.5 123.048C204.5 124.429 204 125.548 201.5 127.048C200.5 125.548 200 124.429 200 123.048C200 121.667 201.119 122.048 202.5 122.048C203.881 122.048 204.5 121.667 204.5 123.048Z" fill="#C16102"/>
</svg>
